<?xml version="1.0" encoding="utf-8"?>
<!-- Generator: Adobe Illustrator 23.1.1, SVG Export Plug-In . SVG Version: 6.00 Build 0)  -->
<svg version="1.1" id="Layer_1" xmlns="http://www.w3.org/2000/svg" xmlns:xlink="http://www.w3.org/1999/xlink" x="0px" y="0px"
	 viewBox="0 0 58 58" style="enable-background:new 0 0 58 58;" xml:space="preserve">
<style type="text/css">
	.st0{opacity:0.5;fill:#FFD591;enable-background:new    ;}
	.st1{fill:url(#SVGID_1_);}
	.st2{fill:none;stroke:#FFF7E6;stroke-width:2;stroke-linecap:round;}
	.st3{fill:none;stroke:#FFF7E6;stroke-linecap:round;stroke-dasharray:1,3;}
	.st4{fill:#874D00;}
	.st5{fill:#FFFFFF;}
</style>
<g>
	<circle class="st0" cx="28.5" cy="29.4" r="28.5"/>
	
		<linearGradient id="SVGID_1_" gradientUnits="userSpaceOnUse" x1="287.4916" y1="-354.4116" x2="326.9916" y2="-314.9116" gradientTransform="matrix(1 0 0 -1 -277 -307)">
		<stop  offset="0" style="stop-color:#F5AF19"/>
		<stop  offset="1" style="stop-color:#F12711"/>
	</linearGradient>
	<circle class="st1" cx="30" cy="27.9" r="28"/>
	<g>
		<circle class="st2" cx="30" cy="27.9" r="27"/>
	</g>
	<circle class="st3" cx="30" cy="27.9" r="24"/>
	<path class="st4" d="M23,35.9l0-7.6l-3.7,6.2h-1.3l-3.7-6.1v7.4h-2.7V23.3h2.4l4.7,7.8l4.6-7.8h2.4l0,12.6H23z M39.7,24.9
		c0.7,0.6,1.2,1.3,1.5,2.1c0.4,0.8,0.6,1.7,0.6,2.7c0,1.2-0.3,2.4-0.9,3.3c-0.6,1-1.4,1.8-2.5,2.3c-1,0.6-2.2,0.8-3.5,0.8
		c-1.3,0-2.5-0.3-3.5-0.8c-1-0.6-1.9-1.3-2.5-2.3c-0.6-1-0.9-2.1-0.9-3.3s0.3-2.3,0.9-3.3c0.6-1,1.4-1.8,2.5-2.3
		c1.1-0.6,2.3-0.8,3.6-0.8c0.5,0,1.2,0,2,0.1c0.6,0.1,1.1,0.1,1.3,0.1c0.5,0,0.8-0.1,1.1-0.3c0.3-0.2,0.4-0.5,0.4-0.9
		c0-0.4-0.1-0.7-0.4-1.1l1.7-0.6c0.4,0.5,0.6,1.1,0.6,1.8c0,0.7-0.2,1.2-0.5,1.7C40.8,24.4,40.3,24.7,39.7,24.9z M34.9,33.6
		c0.7,0,1.4-0.2,2-0.5c0.6-0.3,1.1-0.8,1.4-1.4c0.3-0.6,0.5-1.3,0.5-2.1c0-0.8-0.2-1.5-0.5-2.1c-0.3-0.6-0.8-1.1-1.4-1.4
		c-0.6-0.3-1.3-0.5-2-0.5s-1.4,0.2-2,0.5c-0.6,0.3-1.1,0.8-1.4,1.4c-0.3,0.6-0.5,1.3-0.5,2.1c0,0.8,0.2,1.5,0.5,2.1
		c0.3,0.6,0.8,1.1,1.4,1.4C33.5,33.5,34.2,33.6,34.9,33.6z M35.7,19.7h3l-3.3,2.6h-2.2L35.7,19.7z M44.2,23.3h2.9v12.6h-2.9V23.3z"
		/>
	<path class="st5" d="M24,34.9l0-7.6l-3.7,6.2h-1.3l-3.7-6.1v7.4h-2.7V22.3h2.4l4.7,7.8l4.6-7.8h2.4l0,12.6H24z M40.7,23.9
		c0.7,0.6,1.2,1.3,1.5,2.1c0.4,0.8,0.6,1.7,0.6,2.7c0,1.2-0.3,2.4-0.9,3.3c-0.6,1-1.4,1.8-2.5,2.3c-1,0.6-2.2,0.8-3.5,0.8
		c-1.3,0-2.5-0.3-3.5-0.8c-1-0.6-1.9-1.3-2.5-2.3c-0.6-1-0.9-2.1-0.9-3.3s0.3-2.3,0.9-3.3c0.6-1,1.4-1.8,2.5-2.3
		c1.1-0.6,2.3-0.8,3.6-0.8c0.5,0,1.2,0,2,0.1c0.6,0.1,1.1,0.1,1.3,0.1c0.5,0,0.8-0.1,1.1-0.3c0.3-0.2,0.4-0.5,0.4-0.9
		c0-0.4-0.1-0.7-0.4-1.1l1.7-0.6c0.4,0.5,0.6,1.1,0.6,1.8c0,0.7-0.2,1.2-0.5,1.7C41.8,23.4,41.3,23.7,40.7,23.9z M35.9,32.6
		c0.7,0,1.4-0.2,2-0.5c0.6-0.3,1.1-0.8,1.4-1.4c0.3-0.6,0.5-1.3,0.5-2.1c0-0.8-0.2-1.5-0.5-2.1c-0.3-0.6-0.8-1.1-1.4-1.4
		c-0.6-0.3-1.3-0.5-2-0.5s-1.4,0.2-2,0.5c-0.6,0.3-1.1,0.8-1.4,1.4c-0.3,0.6-0.5,1.3-0.5,2.1c0,0.8,0.2,1.5,0.5,2.1
		c0.3,0.6,0.8,1.1,1.4,1.4C34.5,32.5,35.2,32.6,35.9,32.6z M36.7,18.7h3l-3.3,2.6h-2.2L36.7,18.7z M45.2,22.3h2.9v12.6h-2.9V22.3z"
		/>
</g>
</svg>
